<?xml version="1.0" encoding="UTF-8" standalone="no"?>
<!DOCTYPE svg PUBLIC "-//W3C//DTD SVG 1.1//EN" "http://www.w3.org/Graphics/SVG/1.1/DTD/svg11.dtd">
<svg width="1000px" height="1000px" viewBox="0 0 1000 1000" version="1.1" xmlns="http://www.w3.org/2000/svg" xmlns:xlink="http://www.w3.org/1999/xlink" xml:space="preserve" xmlns:serif="http://www.serif.com/" style="fill-rule:evenodd;clip-rule:evenodd;stroke-linejoin:round;stroke-miterlimit:2;">
    <path d="M847.095,184.522C781.394,154.442 712.034,133.103 640.787,121.049C631.038,138.477 622.216,156.409 614.36,174.769C538.469,163.333 461.291,163.333 385.4,174.769C377.539,156.411 368.718,138.479 358.973,121.049C287.681,133.205 218.275,154.595 152.508,184.679C21.944,377.851 -13.45,566.226 4.247,751.926C80.707,808.419 166.292,851.384 257.274,878.951C277.761,851.398 295.889,822.166 311.466,791.568C281.879,780.517 253.323,766.884 226.127,750.825C233.285,745.634 240.285,740.286 247.049,735.095C407.168,810.395 592.828,810.395 752.947,735.095C759.79,740.679 766.79,746.027 773.869,750.825C746.621,766.91 718.012,780.569 688.373,791.646C703.931,822.231 722.06,851.437 742.565,878.951C833.624,851.495 919.275,808.55 995.749,752.005C1016.51,536.652 960.277,350.008 847.095,184.522ZM333.882,637.722C284.567,637.722 243.824,592.968 243.824,537.911C243.824,482.854 283.151,437.707 333.725,437.707C384.299,437.707 424.727,482.854 423.862,537.911C422.996,592.968 384.142,637.722 333.882,637.722ZM666.114,637.722C616.719,637.722 576.134,592.968 576.134,537.911C576.134,482.854 615.461,437.707 666.114,437.707C716.766,437.707 756.88,482.854 756.014,537.911C755.149,592.968 716.373,637.722 666.114,637.722Z" style="fill:rgb(8,6,5);fill-rule:nonzero;"/>
</svg>
