<?xml version="1.0" encoding="UTF-8" standalone="no"?>
<!DOCTYPE svg PUBLIC "-//W3C//DTD SVG 1.1//EN" "http://www.w3.org/Graphics/SVG/1.1/DTD/svg11.dtd">
<svg width="1000px" height="1000px" viewBox="0 0 1000 1000" version="1.1" xmlns="http://www.w3.org/2000/svg" xmlns:xlink="http://www.w3.org/1999/xlink" xml:space="preserve" xmlns:serif="http://www.serif.com/" style="fill-rule:evenodd;clip-rule:evenodd;stroke-linejoin:round;stroke-miterlimit:2;">
    <path d="M158.877,841.123L228.32,841.123L704.674,364.769L635.231,295.326L158.877,771.68L158.877,841.123ZM61.413,938.587L61.413,731.476L704.674,89.434C714.42,80.5 725.182,73.596 736.959,68.723C748.735,63.85 761.121,61.413 774.117,61.413C787.112,61.413 799.701,63.85 811.884,68.723C824.067,73.596 834.625,80.906 843.559,90.653L910.566,158.877C920.312,167.811 927.419,178.37 931.886,190.553C936.353,202.736 938.587,214.919 938.587,227.102C938.587,240.097 936.353,252.483 931.886,264.26C927.419,276.037 920.312,286.798 910.566,296.545L268.524,938.587L61.413,938.587ZM841.123,227.102L772.898,158.877L841.123,227.102ZM669.343,330.657L635.231,295.326L704.674,364.769L669.343,330.657Z" style="fill:rgb(8,6,5);fill-rule:nonzero;"/>
</svg>
