<?xml version="1.0" encoding="UTF-8" standalone="no"?>
<!DOCTYPE svg PUBLIC "-//W3C//DTD SVG 1.1//EN" "http://www.w3.org/Graphics/SVG/1.1/DTD/svg11.dtd">
<svg width="1000px" height="1000px" viewBox="0 0 1000 1000" version="1.1" xmlns="http://www.w3.org/2000/svg" xmlns:xlink="http://www.w3.org/1999/xlink" xml:space="preserve" xmlns:serif="http://www.serif.com/" style="fill-rule:evenodd;clip-rule:evenodd;stroke-linejoin:round;stroke-miterlimit:2;">
    <g transform="matrix(41.7714,0,0,41.7714,-63.9143,-43.0286)">
        <path d="M5,22C4.45,22 3.979,21.804 3.588,21.413C3.196,21.021 3,20.55 3,20L3,6C3,5.45 3.196,4.979 3.588,4.587C3.979,4.196 4.45,4 5,4L6,4L6,2L8,2L8,4L16,4L16,2L18,2L18,4L19,4C19.55,4 20.021,4.196 20.413,4.587C20.804,4.979 21,5.45 21,6L21,12L19,12L19,10L5,10L5,20L12,20L12,22L5,22ZM19,24C17.783,24 16.721,23.621 15.813,22.863C14.904,22.104 14.333,21.15 14.1,20L15.65,20C15.867,20.733 16.279,21.333 16.888,21.8C17.496,22.267 18.2,22.5 19,22.5C19.967,22.5 20.792,22.158 21.475,21.475C22.158,20.792 22.5,19.967 22.5,19C22.5,18.033 22.158,17.208 21.475,16.525C20.792,15.842 19.967,15.5 19,15.5C18.517,15.5 18.067,15.588 17.65,15.762C17.233,15.938 16.867,16.183 16.55,16.5L18,16.5L18,18L14,18L14,14L15.5,14L15.5,15.425C15.95,14.992 16.475,14.646 17.075,14.387C17.675,14.129 18.317,14 19,14C20.383,14 21.563,14.487 22.538,15.463C23.513,16.438 24,17.617 24,19C24,20.383 23.513,21.563 22.538,22.538C21.563,23.513 20.383,24 19,24ZM5,8L19,8L19,6L5,6L5,8ZM5,8L5,6L5,8Z" style="fill-rule:nonzero;"/>
    </g>
</svg>
