<?xml version="1.0" encoding="UTF-8"?>
<svg id="Layer_1" data-name="Layer 1" xmlns="http://www.w3.org/2000/svg" viewBox="0 0 210.76 415.01">
  <defs>
    <style>
      .cls-1 {
        fill: #4b8c7f;
      }

      .cls-1, .cls-2, .cls-3, .cls-4, .cls-5, .cls-6, .cls-7, .cls-8, .cls-9, .cls-10, .cls-11, .cls-12, .cls-13, .cls-14 {
        stroke-width: 0px;
      }

      .cls-1, .cls-13 {
        opacity: .5;
      }

      .cls-2 {
        fill: #20ce7f;
      }

      .cls-3 {
        fill: #ffdf8f;
      }

      .cls-3, .cls-11 {
        opacity: .69;
      }

      .cls-15 {
        fill: #15906a;
      }

      .cls-15, .cls-16, .cls-17, .cls-18, .cls-19, .cls-20, .cls-21, .cls-22, .cls-23, .cls-24, .cls-25 {
        stroke-miterlimit: 10;
      }

      .cls-15, .cls-16, .cls-17, .cls-18, .cls-19, .cls-21, .cls-22, .cls-23, .cls-24, .cls-25 {
        stroke: #000;
      }

      .cls-15, .cls-17, .cls-19, .cls-20, .cls-23, .cls-25 {
        stroke-width: 2px;
      }

      .cls-4, .cls-7 {
        opacity: .56;
      }

      .cls-4, .cls-13 {
        fill: #08473b;
      }

      .cls-16, .cls-18, .cls-21, .cls-22, .cls-24 {
        stroke-width: 3px;
      }

      .cls-16, .cls-19 {
        fill: #0b6a5b;
      }

      .cls-17 {
        fill: #1aa272;
      }

      .cls-20 {
        stroke: #0b6a5b;
      }

      .cls-20, .cls-21, .cls-23 {
        fill: none;
      }

      .cls-22 {
        fill: #f7ce86;
      }

      .cls-6 {
        fill: #e76695;
      }

      .cls-7 {
        fill: #13a085;
      }

      .cls-8 {
        fill: #5affc0;
        opacity: .17;
      }

      .cls-9 {
        fill: #107d62;
        opacity: .15;
      }

      .cls-10 {
        fill: #e7eef1;
      }

      .cls-24 {
        fill: #f3b63b;
      }

      .cls-11, .cls-12 {
        fill: #e2ae5a;
      }

      .cls-12 {
        opacity: .6;
      }

      .cls-26 {
        opacity: .46;
      }

      .cls-14 {
        fill: #d68a05;
      }

      .cls-25 {
        fill: #1fb579;
      }
    </style>
  </defs>
  <g id="v2">
    <g id="head">
      <g id="head-2" data-name="head">
        <path class="cls-2" d="m208.88,187.12c-1,7.73-4.13,15.01-5.47,22.36-1.41,7.74-1.07,15.67-2.93,22.84-2,7.7-6.18,14.41-8.79,21.26-2.87,7.5-4.34,15.31-8.08,21.54-4.13,6.88-10.37,11.67-15.73,16.68-5.64,5.27-10.98,11.08-18.2,13.89-6.72,2.61-14.54,2.15-22.8,2.3-8.67.16-16.8,1.13-23.96-.88-8.01-2.25-14.25-7.56-20.56-12.21s-13.23-9.03-18.04-15.73c-4.45-6.21-6.57-14.2-9.9-21.88-3.04-7.01-7.52-13.92-9.75-21.95-2.06-7.43-1.86-15.69-3.32-23.81-1.38-7.65-4.5-15.29-5.44-23.42-.96-8.31.65-16.28.8-23.7.17-8.4-.97-16.45.48-23.72,1.64-8.23,5.94-15.12,9.01-21.9,3.42-7.54,6-15.25,10.93-20.99,5.26-6.13,12.57-9.73,19.19-13.8,6.69-4.12,13.2-9.01,20.91-11.03s15.58-.97,23.66-.97,16.1-.94,23.75,1.1,14.22,6.92,21.07,10.98c6.71,3.98,14.17,7.39,19.68,13.3,5.22,5.61,8.18,13.22,11.93,20.55,3.43,6.71,8.02,13.46,9.9,21.61,1.68,7.27.72,15.37.95,23.79.21,7.45,1.8,15.45.71,23.8Z"/>
        <path class="cls-21" d="m208.88,187.12c-1,7.73-4.13,15.01-5.47,22.36-1.41,7.74-1.07,15.67-2.93,22.84-2,7.7-6.18,14.41-8.79,21.26-2.87,7.5-4.34,15.31-8.08,21.54-4.13,6.88-10.37,11.67-15.73,16.68-5.64,5.27-10.98,11.08-18.2,13.89-6.72,2.61-14.54,2.15-22.8,2.3-8.67.16-16.8,1.13-23.96-.88-8.01-2.25-14.25-7.56-20.56-12.21s-13.23-9.03-18.04-15.73c-4.45-6.21-6.57-14.2-9.9-21.88-3.04-7.01-7.52-13.92-9.75-21.95-2.06-7.43-1.86-15.69-3.32-23.81-1.38-7.65-4.5-15.29-5.44-23.42-.96-8.31.65-16.28.8-23.7.17-8.4-.97-16.45.48-23.72,1.64-8.23,5.94-15.12,9.01-21.9,3.42-7.54,6-15.25,10.93-20.99,5.26-6.13,12.57-9.73,19.19-13.8,6.69-4.12,13.2-9.01,20.91-11.03s15.58-.97,23.66-.97,16.1-.94,23.75,1.1,14.22,6.92,21.07,10.98c6.71,3.98,14.17,7.39,19.68,13.3,5.22,5.61,8.18,13.22,11.93,20.55,3.43,6.71,8.02,13.46,9.9,21.61,1.68,7.27.72,15.37.95,23.79.21,7.45,1.8,15.45.71,23.8Z"/>
      </g>
      <path class="cls-8" d="m205.58,145.99c4.95,19.79-11.42,100.81-10.19,77.5,2-38-16.18-61.18-40-85-19-19-18.67-69.08,13.19-50.5,24,14,33,42,37,58Z"/>
      <g id="cactus_lines" data-name="cactus lines" class="cls-26">
        <path class="cls-20" d="m89.13,293.63c-2.88-3.45-3.93-7.85-6.26-10.76-2.83-3.52-6.89-5.51-9.06-8.55-2.56-3.58-3.03-8-4.92-11.41s-5.44-6.31-6.96-10.29c-1.35-3.53-.69-7.97-1.92-12.3-1.01-3.57-3.95-6.99-5.01-11.38-.88-3.64.16-8.06-.82-12.42-.83-3.7-3.67-7.24-4.62-11.55-.83-3.74.25-8.16-.7-12.43-1.07-4.8-3.38-9.64-3.12-14.76.24-4.86,3-9.54,4.2-14.54s.77-10.15,2.59-14.91,5.64-8.44,7.86-12.95,2.86-9.89,5.36-14.17,6.96-7.65,9.63-11.7c2.91-4.4,4.16-9.68,6.93-13.48,3.3-4.53,7.99-7.35,10.68-10.74,5.71-7.22,8.18-11.37,8.01-11.5"/>
        <path class="cls-20" d="m149.53,293.12c2.88-3.45,7.02-5.31,9.36-8.22,2.83-3.52,3.7-7.93,5.87-10.96,2.56-3.58,6.41-5.87,8.29-9.28s1.82-8,3.34-11.97c1.35-3.53,4.48-6.71,5.71-11.04,1.01-3.57.08-8,1.14-12.39.88-3.64,3.74-7.15,4.72-11.51.83-3.7-.24-8.11.71-12.42.83-3.74,3.66-7.3,4.6-11.56,1.05-4.74-.54-9.85-.7-14.88s1.17-9.96.11-14.89-4.31-8.95-5.96-13.68-1.64-9.95-3.7-14.45-6.09-8.04-8.42-12.32c-2.42-4.44-3.21-9.72-5.72-13.78-2.74-4.42-7.15-7.48-9.76-11.29-3.12-4.55-4.43-9.77-6.97-13.19-5.22-7.03-10.56-10.8-10.56-11.28"/>
        <path class="cls-20" d="m113.07,292.56c-2.53-3.6-3.11-8.19-5.14-11.63-2.23-3.77-5.94-6.52-7.66-10.15-1.85-3.92-1.59-8.53-2.96-12.37s-4.54-7.42-5.57-11.43.05-8.56-.71-12.7-3.36-7.85-3.95-12.08.87-8.44.32-12.72c-.52-4.02-3.04-7.89-3.63-12.18-.56-4,.81-8.43.12-12.72s-3.04-8.45-3.12-12.83,2.11-8.62,2.54-12.98-.91-8.95-.1-13.22,3.78-8.12,4.91-12.28.55-9.05,1.92-13.08c1.45-4.27,4.87-7.67,6.43-11.56,1.73-4.29,1.65-9.11,3.34-12.8,2.05-4.46,5.81-7.54,7.53-10.87,3.61-7.01,4.26-11.71,4.26-11.97"/>
        <path class="cls-20" d="m130.07,293.42c2.6-3.72,6.64-6.29,8.77-9.9,2.29-3.88,2.57-8.66,4.4-12.47,1.93-4.03,5.46-7.25,6.95-11.25s.98-8.89,2.16-13.05,4.16-7.93,5.08-12.2-.26-8.86.49-13.22c.72-4.21,3.37-8.19,4.03-12.59s-.72-8.8-.06-13.23c.63-4.19,3.26-8.19,3.98-12.61s-.93-8.8-.87-13.07,1.81-8.77,1.32-13.03-3.22-8.25-4.17-12.42c-.97-4.26-.22-8.96-1.54-13.01s-4.76-7.56-6.36-11.46c-1.69-4.13-1.65-8.9-3.45-12.64-1.98-4.12-5.75-7.09-7.64-10.65-2.26-4.26-2.61-9.02-4.4-12.34-2.91-5.39-6.81-8.8-7.17-11.14"/>
        <line class="cls-20" x1="57.41" y1="236.95" x2="52.66" y2="240.15"/>
        <line class="cls-20" x1="52.85" y1="233.9" x2="57.09" y2="236.53"/>
        <line class="cls-20" x1="168.46" y1="109.58" x2="172.24" y2="105.27"/>
        <line class="cls-20" x1="183.78" y1="226.81" x2="188.92" y2="231.36"/>
        <line class="cls-20" x1="194.69" y1="224.98" x2="184.89" y2="225.28"/>
        <line class="cls-20" x1="175.33" y1="109.16" x2="170.09" y2="110.94"/>
      </g>
      <path class="cls-9" d="m117.39,102.49c-15.69,16.74-17,21-20,25-5.42,7.22-13,26.3-13,40,0,22,5.78,37.19,9,45,10.95,26.52,22,54,63,65,7.47,2-2.41,8.4-3.81,10.5-3.64,5.45-53.05,2.48-72,1-.15-.01-2-1-2-1-6.22,1.76-18.46-17.26-27-42-6-17-8.19-31.41-10-44-2.56-17.79-5-34-3-53,1.5-14.25,8.47-40.13,32-59,10.25-8.22,19.63-13.48,35-16,27.5-4.5,26.81,12.5,11.81,28.5Z"/>
      <line class="cls-23" x1="206.08" y1="119.49" x2="200.08" y2="124.49"/>
      <line class="cls-23" x1="201.08" y1="126.49" x2="209.08" y2="126.49"/>
      <line class="cls-23" x1="201.08" y1="113.49" x2="199.08" y2="120.49"/>
      <line class="cls-23" x1="204.08" y1="210.49" x2="209.08" y2="210.49"/>
      <line class="cls-23" x1="208.71" y1="215.54" x2="203.46" y2="213.44"/>
      <line class="cls-23" x1="35.58" y1="147.99" x2="28.58" y2="145.99"/>
      <line class="cls-23" x1="29.58" y1="152.99" x2="36.08" y2="150.49"/>
      <line class="cls-23" x1="85.58" y1="219.99" x2="81.58" y2="217.99"/>
      <line class="cls-23" x1="81.08" y1="223.49" x2="85.58" y2="218.99"/>
      <line class="cls-23" x1="142.58" y1="92.99" x2="150.58" y2="92.99"/>
      <line class="cls-23" x1="143.12" y1="92.5" x2="148.02" y2="89.13"/>
    </g>
    <g id="pot">
      <g>
        <path class="cls-14" d="m175.52,285.64l-.41.34,2.56,1.06s0-.07,0-.11l-.05.4.02-.05-.15.36.03-.05-.23.3.04-.04-.3.23.04-.03-.36.15.05-.02-1.46-2.51c-.79.69-1.57,1.37-2.36,2.06s-1.53,1.36-2.1,2.23c-.43.66-.15,1.69.54,2.05.75.4,1.59.16,2.05-.54.07-.11.14-.21.22-.31l-.23.3c.53-.68,1.2-1.22,1.85-1.79.72-.63,1.44-1.26,2.16-1.89.48-.42.58-1.29.23-1.82-.14-.22-.32-.4-.54-.54-.28-.18-.84-.28-1.16-.15-.43.18-.78.38-1.03.78-.16.26-.29.65-.25.97.03.26.07.52.2.76.17.28.42.49.72.61.59.25,1.16.09,1.64-.31l.41-.34c.28-.23.44-.71.44-1.06,0-.37-.16-.81-.44-1.06s-.66-.46-1.06-.44-.74.17-1.06.44h0Z"/>
        <path class="cls-14" d="m172.17,292.2c1.93,0,1.93-3,0-3s-1.93,3,0,3h0Z"/>
        <path class="cls-14" d="m172.08,292.2c1.93,0,1.93-3,0-3s-1.93,3,0,3h0Z"/>
        <path class="cls-14" d="m178.04,288.46c1.65-.13,3.28.19,4.91.44,1.75.27,3.51.53,5.26.8v-2.89c-1.99.48-4.04.47-6.07.39s-4.3-.41-6.26.48c-.74.34-.92,1.4-.54,2.05.44.76,1.31.88,2.05.54.69-.32,1.6-.19,2.33-.17,1.03.03,2.07.09,3.1.12,2.07.05,4.16-.03,6.18-.52.64-.15,1.1-.8,1.1-1.45,0-.6-.46-1.35-1.1-1.45-1.83-.28-3.66-.55-5.48-.83s-3.65-.65-5.48-.51c-.81.06-1.5.64-1.5,1.5,0,.76.69,1.56,1.5,1.5h0Z"/>
      </g>
      <g>
        <path class="cls-14" d="m66.4,286.89l.23.23,2.12-2.12c-.13-.12-.25-.24-.38-.36l-2.12,2.12c1.91,1.68,3.84,3.33,5.79,4.95.31.26.64.44,1.06.44.37,0,.81-.16,1.06-.44.51-.55.64-1.59,0-2.12-1.95-1.62-3.88-3.27-5.79-4.95-.59-.52-1.55-.62-2.12,0-.54.59-.6,1.54,0,2.12.13.12.25.24.38.36.56.55,1.57.6,2.12,0s.59-1.52,0-2.12l-.23-.23c-.55-.56-1.58-.59-2.12,0s-.59,1.52,0,2.12h0Z"/>
        <path class="cls-14" d="m65.07,285.06c-1.2.54-2.56.75-3.83,1.04-1.42.32-2.83.65-4.25.97-1.68.38-1.26,2.91.4,2.95,1.88.04,3.77.04,5.65.02.93-.01,1.86-.04,2.79-.06.71-.02,1.4-.06,1.95.21.72.36,1.63.19,2.05-.54.39-.67.19-1.69-.54-2.05-1.8-.91-3.87-.6-5.82-.57s-4.06.03-6.08,0l.4,2.95c1.49-.34,2.97-.68,4.46-1.02s2.94-.67,4.34-1.3c.74-.33.92-1.41.54-2.05-.44-.76-1.31-.87-2.05-.54h0Z"/>
      </g>
      <path class="cls-22" d="m56.39,318.49c-1.14-.84-1.5-2.5-2-5-.48-2.41-.4-10.92-.94-23.56-.03-.78.59-1.47,1.37-1.44,12.07.51,46,4.14,68.07,4.51,23.1.38,30-1,69.84-5.01,1.01-.1,1.32,1.32,1.32,1.32-.02,3.25-.65,10.22-.65,16.19-1,10-1,9-2,12-.32.95-1,1-1,1,0,0-1-.15-1,0,0,3-3.05,15.99-7,36,0,0,0,0,0,0-3.23,15.14-7.57,33.56-13.39,54.49-12.4,2.57-28.22,4.72-46.61,4.51-17.25-.19-32.15-2.41-44-5-5.45-19.34-10.58-40.38-15-63,0,0,0,0,0,0-3.89-15.23-4.5-20.5-4.5-22.5,0-1,0-3-.5-3.5s-1.15-.38-2-1Z"/>
      <path class="cls-12" d="m116.39,368.49c.11,5.73.7,28.56,1,39,.19,6.5-9.81,3.5-18.81,2.5-7.24-.8-19-2-19.19-3.5-.79-6.27-1.81-7.5-2.81-12.5-.1-.5-3.97-12.83-4-13-1-5-4.19-17.5-7.19-32.5-.82-4.12-4-17-5-27-.4-4.03,23.26.8,38,1,22.63.31,86.19-3.5,88.19-3.5,2.33,0,.22,4.19-2,4-23-2-29.01.5-36.19.5-12,0-20.5-1-25,2-11.91,7.94-7.12,36.5-7,43Z"/>
      <line class="cls-24" x1="73.89" y1="319.99" x2="58.39" y2="319.49"/>
      <path class="cls-24" d="m176.89,318.99c2.98,0,10.96,0,13.94-.98.02,0,.04-.01.06-.02"/>
      <path class="cls-18" d="m53.89,288.99c3-3,14.97-4.99,15-5"/>
      <path class="cls-24" d="m192.89,287.99c-1-2-18-3-17-3l17,3Z"/>
      <path class="cls-11" d="m119.39,320.49l-59.81-2.5c-1.55,0-3-2.45-3-4l-1-19c0-1.55-1-5,1-5,10.11.71,17.89,2.29,28,3,13.56.95,29,2,43,2,.3,0,.52.08.67.2,1,.78,0,3.73-.86,6.3l-3,14c-1,2,0,5-5,5Z"/>
      <path class="cls-3" d="m171.39,317.49l18.19-.5c.82,0,1-5,1-6l1.81-17.5c0-1.43.19-3.5,0-4l-26,3c-.53,0,.47,6.22,1,9l1,11c.53,1.85.36,5,3,5Z"/>
      <path class="cls-3" d="m171.39,390.49l.19,1.5c1.05.18,3.41-11.47,4-15l9.29-43.76c.59-3.53,2.57-7.57,1.52-7.74l-17-1c-.68-.11,1.48,20.03,1,27v28c-.09,4.69,1,8,1,11Z"/>
    </g>
    <g id="stair_logo" data-name="stair logo">
      <path class="cls-25" d="m135.66,343.99c-3.77,1-9.51,1-13.77,1s-8,0-11.77-1c-.02,0-.1,0-.17-.07-.04-.04-.07-.1-.07-.17v-6.53c0-.13.11-.27.23-.23,3.77,1,8.77,2,12.77,2s8-1,12.77-2c.02,0,.1,0,.17.07.04.04.07.1.07.17v6.53c0,.13-.1.23-.23.23Z"/>
      <path class="cls-17" d="m139.08,357.37c-5,1.13-12.62,1.13-18.27,1.13s-10.62,0-15.61-1.13c-.02,0-.13,0-.22-.08-.06-.05-.09-.11-.09-.19v-7.35c0-.15.14-.3.31-.26,5,1.13,11.63,2.25,16.94,2.25s10.62-1.13,16.94-2.25c.02,0,.13,0,.22.08.06.05.09.11.09.19v7.35c0,.15-.14.26-.31.26Z"/>
      <path class="cls-15" d="m152.39,373.99c-8.18,1.5-20.67,1.5-29.92,1.5s-17.39,0-25.57-1.5c-.03,0-.21,0-.36-.1-.09-.06-.15-.15-.15-.25v-9.8c0-.19.24-.4.51-.35,8.18,1.5,19.05,3,27.74,3s17.39-1.5,27.74-3c.03,0,.21,0,.36.1.09.06.15.15.15.25v9.8c0,.19-.23.35-.51.35Z"/>
      <path class="cls-19" d="m158.78,394.52c-10.14,1.98-25.61,1.98-37.07,1.98s-21.54,0-31.69-1.98c-.04,0-.27,0-.45-.14-.11-.08-.18-.2-.18-.33v-12.9c0-.26.29-.53.63-.46,10.14,1.98,23.61,3.95,34.38,3.95s21.54-1.98,34.38-3.95c.04,0,.27,0,.45.14.11.08.18.2.18.33v12.9c0,.26-.28.46-.63.46Z"/>
    </g>
    <g id="bow">
      <path class="cls-16" d="m125.39,263.49c5.46,5.85-9.85,8-22,8s-23.21,0-23-8.5c.46-18.84-3-23.27,22-14.5,11.47,4.02,16,7.5,23,15Z"/>
      <path class="cls-16" d="m127.44,263.29c-5.46,5.85,9.85,8,22,8,12.15,0,23.21,0,23-8.5-.46-18.84,3-23.27-22-14.5-11.47,4.02-16,7.5-23,15Z"/>
      <path class="cls-16" d="m124.39,269.65c0,5.01-12.26,7.75-22.13,9.98-15.43,3.49-12.93,5.53-15.54-4.54-.94-3.63-6.59-11.8,15.54-13.61,10.1-.83,22.13,3.16,22.13,8.17Z"/>
      <path class="cls-16" d="m128.95,269.15c0,5.01,12.26,7.75,22.13,9.98,15.43,3.49,12.93,5.53,15.54-4.54.94-3.63,6.59-11.8-15.54-13.61-10.1-.83-22.13,3.16-22.13,8.17Z"/>
      <path class="cls-16" d="m133.39,263.99c-3,12.5-1,13.5-9,13.5s-6-1-9-13.5c-1.98-8.27-2-8.5,9-8.5s10.98.23,9,8.5Z"/>
      <path class="cls-7" d="m112.39,259.49c-1,2-13,0-18,1-8.66,1.73-12-3.48-12-9,0-7,8.73-6.1,17-3,8,3,15.47,6.06,13,11Z"/>
      <path class="cls-7" d="m139.39,259.49c1,2,12.23-.8,17,1,8.41,3.17,13.59-2.65,13.59-8.17,0-7-8.73-6.1-17-3-8,3-16.06,5.23-13.59,10.17Z"/>
      <path class="cls-7" d="m115.39,272.49c.54,2.17-9.89,3.83-14.89,4.83-8.66,1.73-12.11.69-12.11-4.83,0-7,8.27-7.39,17.11-7.17,6.89.17,7.89-.83,9.89,7.17Z"/>
      <path class="cls-7" d="m129.39,274.49c0,1-9.76.97-10,0-1-4-3-13-3-15s5.16-2,14-2c4,0-1,8.75-1,17Z"/>
      <path class="cls-7" d="m127.39,271.49c0,1-5.76.97-6,0-1-4-2.71-10.29-2-11,1-1,5,0,8,0,4,0,0,2.75,0,11Z"/>
      <path class="cls-7" d="m142.39,258.49c1,1,7.23-1.8,12,0,8.41,3.17,12-.48,12-6,0-7-8.8-3.28-17,0-5,2-10.54,2.46-7,6Z"/>
      <path class="cls-7" d="m138.39,269.49c0,2,7.26,3.02,9,4,2.1,1.18,8.03,1.35,8-3-.02-3-2.16-5-11-5-3,0-6-1.1-6,4Z"/>
      <path class="cls-7" d="m110.84,271.17c0,.84-8.27,2.84-10.85,3.36-4.17.84-9.23-1.73-8.34-4.18.95-2.61,7.53-3.36,10.01-3.36,2.64,0,9.18.73,9.17,4.18Z"/>
      <path class="cls-7" d="m105.82,257.11c-.64,1.4-7.64.31-10.6,1.12-5.13,1.4-6.97-2.1-6.83-5.89.17-4.81,5.27-4.4,10.06-2.47,4.63,1.87,8.94,3.79,7.37,7.24Z"/>
      <path class="cls-7" d="m133.98,270.91c-.26,1.84,10.68,2.89,14.89,4.83,8.02,3.7,12.11.69,12.11-4.83,0-7-8.27-7.39-17.11-7.17-6.89.17-8.73-.99-9.89,7.17Z"/>
    </g>
    <path id="mouth" class="cls-21" d="m106.39,180.99c.95,1.14,6.34,7.38,15.5,8,10.91.74,17.78-7.15,18.5-8-1.1,1.08-8.03,7.65-18.5,7-8.63-.53-14.1-5.61-15.5-7Z"/>
    <g id="right_smile_lines" data-name="right smile lines">
      <path class="cls-6" d="m170.41,194.77c.06,6,1,6,8,5,6.73-.96,12-2,12-5,0-4.47-2-4-10-6-6.38-1.6-10.06-.08-10,6Z"/>
      <g id="smile_lines_right" data-name="smile lines right">
        <path class="cls-23" d="m178.89,189.99s-.04,1.88-1,4c-1.16,2.58-3,4-3,4,0,0,1.84-1.42,3-4,.96-2.12,1-4,1-4Z"/>
        <path class="cls-23" d="m182.91,190.94s-.03,1.31-.63,2.78c-.73,1.79-1.89,2.78-1.89,2.78,0,0,1.16-.99,1.89-2.78.6-1.47.63-2.78.63-2.78Z"/>
        <path class="cls-23" d="m186.18,192.17s-.02.78-.45,1.66c-.52,1.07-1.34,1.66-1.34,1.66,0,0,.82-.59,1.34-1.66.43-.88.45-1.66.45-1.66Z"/>
      </g>
    </g>
    <g id="left_smile_lines" data-name="left smile lines">
      <path class="cls-6" d="m80.39,196.49c-.06,6-1,6-8,5-6.73-.96-12-2-12-5,0-4.47,2-4,10-6,6.38-1.6,10.06-.08,10,6Z"/>
      <g id="smile_lines_left" data-name="smile lines left">
        <path class="cls-23" d="m78.65,198.42s-1.62-.85-3.04-2.61c-1.74-2.13-2.18-4.35-2.18-4.35,0,0,.44,2.21,2.18,4.35,1.43,1.75,3.04,2.61,3.04,2.61Z"/>
        <path class="cls-23" d="m71.69,198.62s-1-.84-1.76-2.24c-.93-1.7-.97-3.22-.97-3.22,0,0,.04,1.52.97,3.22.76,1.39,1.76,2.24,1.76,2.24Z"/>
        <path class="cls-23" d="m66.72,197.8s-.64-.45-1.14-1.29c-.6-1.03-.64-2.04-.64-2.04,0,0,.04,1.01.64,2.04.5.84,1.14,1.29,1.14,1.29Z"/>
      </g>
    </g>
    <g id="right_eye" data-name="right eye">
      <circle id="right_eye-2" data-name="right eye" class="cls-5" cx="166.89" cy="169.99" r="10"/>
      <path class="cls-10" d="m174.21,167.1c.91,1.92.88,4.76.17,4.19-.99-.79-1.07-.87-1.99-2.79s-2-4-1.33-4.17c.88-.22,2.23.85,3.14,2.77Z"/>
      <path class="cls-10" d="m169.21,169.27c-.37-.74-.24-1.49.22-1.79l.45.89c.45.89,1.39,1.54.89,1.79s-1.19-.15-1.56-.9Z"/>
    </g>
    <g id="left_eye" data-name="left eye">
      <circle id="left_eye-2" data-name="left eye" class="cls-5" cx="78.89" cy="169.99" r="10"/>
      <path class="cls-10" d="m83.64,166.25c1.03,1.86,1.17,4.69.43,4.17-1.03-.73-1.12-.8-2.15-2.67s-2.24-3.87-1.58-4.08c.87-.27,2.27.71,3.3,2.58Z"/>
      <path class="cls-10" d="m78.73,169.56c-.48-.67-.47-1.44-.06-1.8l.58.81c.58.81,1.61,1.31,1.16,1.63s-1.2.03-1.69-.64Z"/>
    </g>
    <g id="Hat">
      <ellipse class="cls-16" cx="90.62" cy="91.36" rx="104.83" ry="19.78" transform="translate(-34.87 62.87) rotate(-32.44)"/>
      <path class="cls-16" d="m86.52,2.97c.86,1.17-13.72,15.82-34.92,29.28-21.21,13.46-40.49,21.56-41.87,19.45-1.09-1.67,9.85-23.04,31.05-36.49S83.94-.54,86.52,2.97Z"/>
      <path class="cls-16" d="m70.97,104.3c-.17.11-14.54,7.7-22.19,7.43-.76-.03-5.2-6.74-5.2-6.74L11.02,52.6c12.93-3.78,28.36-12.11,40.95-20.1,12.79-8.12,25.78-18.42,35.07-28.46,12.08,19.94,21.76,36.88,33.83,56.81,3.17,2.8-4.77,9.83-5.91,10.98"/>
      <path class="cls-13" d="m10.92,51c-.35-.06-.42-.51,0-1.17.09-.14,2.2-4.62,2.29-4.69,2.2-3.08,2.12-2.64,4.32-5.71l3.76-5.24c1.07-1.5,5.52-6.48,6.8-7.79,1.14-1.17,2.29-3.51,5.72-4.69-3.34,4.1-.44,9,2.78,12.6,1.3,1.46,1.92,1.95,2.3,2.19.5.32.61.31.64.43.32,1.1-9.16,5.86-13.73,8.2-2.21,1.13-11.99,6.31-14.88,5.86Z"/>
      <path class="cls-13" d="m45.25,49.83c5.72,9.37,12.59,19.92,36.62,46.86,1.14,2.34-6.87,4.69-9.16,5.86-2.8,1.26-5.21,2.26-8.01,3.51-3.3,1.48-7.14,2.46-10.44,3.93-.53.26-1.6.62-3,.67-1.21.05-2.38-.13-2.72-.67L15.5,58.03c-.99-.86-2.29-3.14-2.29-4.69,0-1.17,9.01-3.19,11.44-4.69,1.63-1,17.17-8.2,17.17-8.2,0,3.68,2.88,8.47,3.43,9.37Z"/>
      <path class="cls-13" d="m85.31,100.2c-1.36,5.59-3.23,9.17-3.23,9.17-5.92,11.92-5.42,10.87-9.36,14.26-1.45,1.25-4.36,2.73-10.05,5.79-5.9,3.18-9.93,4.95-11.69,5.93-12.97,7.19-43.15,18.2-48.07,11.72-4.86-6.41,19.46-31.63,38.91-43.35.74-.45,1.66,5.74,5.72,8.2,2.94,1.78,6.27.25,8.01,0,8.01-1.17,30.46-14.6,29.76-11.72Z"/>
      <path class="cls-1" d="m115.06,69.74c1.49-1.11,3.18-2.39,4.58-4.69.56-.93.92-1.76,1.14-2.34l-30.9-51.55c-.25-1.17-1.16-3.97-2.29-4.69-.86-.54-6.43,6.02-8.46,7.21-.88.51-5.84,4.29-9.26,6.92-1.6,1.23-1.88,3.57-.62,5.16s2.29,3.39,2.7,4.16c.07.13.12.22.13.24,1.25,2.36,11.77,13.68,33.98,41.56,1.2,1.5,3.31,1.85,4.9.81,1.28-.83,2.46-1.58,4.1-2.8Z"/>
      <path class="cls-1" d="m63.56,13.51c1.23,2.47,2.55,3.9,3.43,4.69.31.28.5.5.8.52.75.05,1.58-1.35,5.39-3.92,0,0,11.18-8.11,12.19-11.41.04-.13,0-.22,0-.22-.08-.26-.45-.43-1.08-.38-.17.01-4.23-.18-4.33-.12-2.4-.16-4.58.14-8.42.69l-6.4,1.43c-1.03.34-1.11.31-1.22.34,0,0-.19.05-.37.19-.11.08-1.14,1.17-1.62,2.77-.59,1.95.48,3.09,1.62,5.43Z"/>
      <path class="cls-4" d="m121.94,60.84c-1.78-2.64-2.8-4.39-4.58-7.03l4.58-2.34c.03,3.87-.03,5.5,0,9.37Z"/>
    </g>
  </g>
</svg>