<?xml version="1.0" encoding="UTF-8" standalone="no"?>
<svg
   xmlns:dc="http://purl.org/dc/elements/1.1/"
   xmlns:cc="http://creativecommons.org/ns#"
   xmlns:rdf="http://www.w3.org/1999/02/22-rdf-syntax-ns#"
   xmlns:svg="http://www.w3.org/2000/svg"
   xmlns="http://www.w3.org/2000/svg"
   viewBox="0 0 666.66669 666.66669"
   height="666.66669"
   width="666.66669"
   xml:space="preserve"
   id="svg2"
   version="1.1"><metadata
     id="metadata8"><rdf:RDF><cc:Work
         rdf:about=""><dc:format>image/svg+xml</dc:format><dc:type
           rdf:resource="http://purl.org/dc/dcmitype/StillImage" /></cc:Work></rdf:RDF></metadata><defs
     id="defs6" /><g
     transform="matrix(1.3333333,0,0,-1.3333333,0,666.66667)"
     id="g10"><g
       transform="scale(0.1)"
       id="g12"><path
         id="path14"
         style="fill:#ffffff;fill-opacity:1;fill-rule:nonzero;stroke:none"
         d="M 0,0 H 5000 V 5000 H 0 Z" /><path
         id="path16"
         style="fill:#53bc77;fill-opacity:1;fill-rule:nonzero;stroke:none"
         d="m 1839.9,3739.9 c 440.1,0.2 880.2,0.2 1320.3,0 -0.3,-96.6 -0.5,-193.2 -0.1,-289.8 -440.1,-0.2 -880.2,-0.2 -1320.3,0 0.3,96.6 0.4,193.2 0.1,289.8" /><path
         id="path18"
         style="fill:#26b478;fill-opacity:1;fill-rule:nonzero;stroke:none"
         d="m 1660,3259.9 c 560,0.2 1120.1,0.2 1680.1,0 -0.1,-123.3 -0.1,-246.5 -0.1,-369.8 -560.1,-0.2 -1120.1,-0.2 -1680.1,0 0.1,123.3 0.1,246.6 0.1,369.8" /><path
         id="path20"
         style="fill:#03966c;fill-opacity:1;fill-rule:nonzero;stroke:none"
         d="m 1420.1,2649.9 c 719.9,0.1 1439.9,0.2 2159.8,0 0.3,-159.9 0.3,-319.9 0,-479.8 -719.9,-0.1 -1439.9,-0.2 -2159.8,0 -0.3,160 -0.3,319.9 0,479.8" /><path
         id="path22"
         style="fill:#0c6859;fill-opacity:1;fill-rule:nonzero;stroke:none"
         d="m 1120.2,1859.9 c 919.9,0.2 1839.7,0.2 2759.6,0 0.5,-199.9 0.4,-399.8 0,-599.8 -919.9,-0.2 -1839.7,-0.2 -2759.6,0 -0.5,200 -0.4,399.9 0,599.8" /></g></g></svg>